<?xml version="1.0" standalone="no"?>
<!DOCTYPE svg PUBLIC "-//W3C//DTD SVG 20010904//EN"
 "http://www.w3.org/TR/2001/REC-SVG-20010904/DTD/svg10.dtd">
<svg version="1.0" xmlns="http://www.w3.org/2000/svg"
 width="12500.000000pt" height="8334.000000pt" viewBox="0 0 12500.000000 8334.000000"
 preserveAspectRatio="xMidYMid meet">

<g transform="translate(0.000000,8334.000000) scale(0.100000,-0.100000)"
fill="#000000" stroke="none">
<path d="M55705 52164 c-308 -30 -478 -57 -687 -109 -1267 -318 -2295 -1278
-2702 -2524 -249 -761 -249 -1621 0 -2382 427 -1307 1533 -2293 2874 -2563
270 -55 432 -70 750 -70 312 -1 431 8 677 50 649 110 1275 399 1788 823 118
98 345 321 449 441 448 517 748 1140 871 1804 47 257 59 401 59 706 0 305 -12
449 -59 706 -123 664 -423 1287 -871 1804 -104 120 -331 343 -449 441 -569
470 -1248 761 -1995 854 -118 15 -611 28 -705 19z"/>
<path d="M62320 48250 l0 -2640 5240 0 5240 0 0 2640 0 2640 -5240 0 -5240 0
0 -2640z"/>
<path d="M52499 42289 c-266 -34 -543 -243 -669 -504 -66 -137 -85 -219 -84
-380 0 -167 10 -222 99 -550 401 -1468 987 -2839 1775 -4148 984 -1639 2208
-2968 3574 -3882 1280 -856 2668 -1363 4191 -1530 449 -49 1186 -70 1626 -46
1347 73 2578 396 3734 981 1900 962 3536 2609 4802 4835 694 1220 1264 2631
1604 3970 52 205 53 213 54 355 0 170 -14 235 -81 379 -100 214 -265 375 -469
460 -170 71 -16 66 -1960 66 l-1750 0 -57 -23 c-74 -30 -156 -105 -195 -179
-17 -32 -71 -159 -121 -283 -417 -1047 -947 -1932 -1635 -2733 -149 -173 -497
-529 -667 -681 -566 -508 -1151 -873 -1845 -1151 -1277 -513 -2533 -524 -3810
-35 -1036 397 -1906 1039 -2716 2008 -615 735 -1106 1571 -1530 2604 -53 131
-109 259 -124 284 -38 66 -92 122 -138 145 -97 50 -55 49 -1857 48 -927 -1
-1715 -5 -1751 -10z"/>
</g>
</svg>
