<?xml version="1.0" standalone="no"?>
<!DOCTYPE svg PUBLIC "-//W3C//DTD SVG 20010904//EN"
 "http://www.w3.org/TR/2001/REC-SVG-20010904/DTD/svg10.dtd">
<svg version="1.0" xmlns="http://www.w3.org/2000/svg"
 width="10000.000000pt" height="10000.000000pt" viewBox="0 0 10000.000000 10000.000000"
 preserveAspectRatio="xMidYMid meet">

<g transform="translate(0.000000,10000.000000) scale(0.100000,-0.100000)"
fill="#000000" stroke="none">
<path d="M27930 50000 l0 -10200 780 0 780 0 0 10200 0 10200 -780 0 -780 0 0
-10200z"/>
<path d="M11940 58449 c-754 -55 -1446 -372 -1980 -908 -504 -506 -802 -1129
-891 -1866 -18 -150 -16 -523 5 -685 52 -413 173 -794 357 -1126 420 -758
1121 -1306 1946 -1519 278 -72 517 -101 818 -98 1109 9 2112 604 2674 1585
450 785 520 1791 184 2648 -394 1007 -1295 1745 -2355 1929 -237 41 -531 57
-758 40z"/>
<path d="M89825 57785 c-450 -83 -808 -396 -949 -829 -117 -356 -51 -769 172
-1079 69 -97 204 -227 302 -294 413 -278 941 -281 1353 -7 272 181 455 456
523 784 25 118 25 345 0 460 -50 235 -155 435 -313 601 -169 177 -369 292
-612 351 -113 27 -360 34 -476 13z m415 -210 c94 -20 172 -49 266 -99 386
-205 595 -635 519 -1067 -70 -403 -387 -727 -794 -811 -136 -28 -338 -21 -466
16 -452 133 -754 539 -740 996 12 397 240 738 601 901 185 83 412 106 614 64z"/>
<path d="M89625 57138 c-3 -7 -4 -269 -3 -583 l3 -570 100 0 100 0 3 193 2
192 128 0 127 -1 41 -57 c22 -31 85 -119 138 -195 l97 -138 125 2 c68 0 124 2
124 4 0 2 -68 97 -150 211 l-150 208 57 28 c145 71 216 235 184 423 -29 166
-117 248 -300 281 -104 18 -619 20 -626 2z m638 -195 c61 -28 86 -78 87 -173
0 -89 -28 -146 -90 -180 -43 -24 -54 -25 -237 -28 l-193 -4 0 207 0 207 193
-4 c171 -3 197 -6 240 -25z"/>
<path d="M17360 55320 l0 -2140 4213 2 4212 3 3 2138 2 2137 -4215 0 -4215 0
0 -2140z"/>
<path d="M32280 55026 c0 -7 58 -170 129 -362 71 -192 299 -808 506 -1369 207
-561 506 -1371 665 -1800 601 -1628 1024 -2772 1773 -4800 558 -1510 628
-1697 638 -1717 9 -17 43 -18 970 -16 l961 3 442 1270 c243 699 714 2052 1046
3007 333 955 608 1734 611 1730 8 -9 1791 -5165 1951 -5642 l123 -365 926 -3
926 -2 148 407 c220 607 277 762 1240 3363 488 1317 1152 3113 1477 3990 325
877 650 1755 723 1950 73 195 129 358 126 363 -4 4 -555 6 -1225 5 l-1218 -3
-93 -250 c-110 -297 -789 -2138 -1889 -5119 -91 -247 -168 -451 -170 -453 -2
-2 -15 29 -29 69 -13 40 -443 1275 -955 2743 -511 1469 -956 2747 -988 2840
l-59 170 -1016 2 c-798 2 -1019 0 -1026 -10 -6 -6 -33 -79 -61 -162 -46 -139
-621 -1797 -1564 -4515 -215 -619 -402 -1158 -416 -1199 -17 -52 -27 -69 -33
-59 -4 8 -436 1169 -958 2579 -523 1410 -1017 2744 -1098 2964 l-148 400
-1218 2 c-1013 3 -1217 1 -1217 -11z"/>
<path d="M48685 55028 c-3 -7 -4 -2274 -3 -5038 l3 -5025 1143 -3 1142 -2 0
5040 0 5040 -1140 0 c-903 0 -1142 -3 -1145 -12z"/>
<path d="M68547 54688 c-2369 -2242 -3308 -3128 -3315 -3128 -5 0 -18 10 -30
23 l-22 23 0 1712 0 1712 -1145 0 -1145 0 2 -5032 3 -5033 1143 -3 1142 -2 1
1702 0 1703 1698 -1703 1698 -1702 1624 0 1624 0 -2488 2488 -2489 2489 2696
2544 c1483 1399 2696 2547 2696 2551 0 4 -747 8 -1660 8 l-1660 0 -373 -352z"/>
<path d="M81938 55033 l-1148 -3 0 -5035 0 -5035 1143 2 1142 3 3 1993 2 1992
334 0 335 0 252 -327 c139 -181 312 -404 384 -498 73 -93 536 -694 1030 -1335
495 -641 958 -1241 1030 -1335 72 -93 178 -231 235 -305 56 -74 114 -147 128
-163 l26 -27 1443 0 c1145 0 1443 3 1437 13 -4 6 -410 534 -903 1172 -492 638
-990 1284 -1107 1435 -117 151 -410 532 -652 845 l-440 570 142 46 c811 263
1398 813 1673 1569 82 224 136 459 169 730 25 204 26 714 1 920 -77 632 -284
1152 -627 1579 -497 618 -1290 1023 -2260 1155 -63 9 -160 21 -215 27 -108 12
-1524 17 -3557 12z m3082 -1844 c514 -52 927 -290 1137 -654 58 -100 108 -233
135 -355 19 -91 22 -133 22 -310 0 -145 -5 -234 -18 -305 -55 -323 -168 -559
-361 -750 -105 -105 -195 -167 -337 -235 -172 -82 -376 -136 -599 -160 -55 -6
-474 -10 -1006 -10 l-913 0 0 1395 0 1395 919 0 c571 0 958 -4 1021 -11z"/>
<path d="M52442 49998 l3 -5033 1145 0 1145 0 5 2965 5 2966 531 -656 c2047
-2524 4006 -4943 4168 -5142 l111 -137 945 2 945 2 3 5033 2 5032 -1150 0
-1150 0 0 -3027 c0 -1664 -1 -3027 -2 -3029 -2 -1 -433 530 -958 1179 -1124
1391 -2524 3122 -2969 3672 -174 215 -464 574 -645 798 l-330 407 -903 0 -903
0 2 -5032z"/>
<path d="M72780 49995 l0 -5035 3420 0 3420 0 0 920 0 920 -2275 0 -2275 0 0
1225 c0 973 3 1225 13 1225 6 0 824 1 1817 3 l1805 2 2 902 c2 496 0 909 -3
918 -6 13 -196 15 -1820 15 l-1814 0 0 1055 0 1055 2275 0 2275 0 0 915 0 915
-3420 0 -3420 0 0 -5035z"/>
<path d="M9410 50479 c-93 -12 -214 -52 -290 -96 -80 -47 -213 -178 -259 -255
-80 -137 -117 -284 -106 -426 13 -180 205 -849 392 -1367 560 -1556 1378
-2957 2377 -4075 164 -184 549 -567 731 -729 1205 -1070 2581 -1714 4090
-1915 99 -14 214 -27 255 -31 41 -3 91 -8 110 -10 222 -27 707 -39 1019 -25
661 28 1219 114 1813 281 1751 491 3295 1637 4528 3359 876 1223 1586 2754
1966 4237 48 190 54 223 54 316 0 288 -155 535 -415 662 -174 85 -50 79 -1575
82 -952 3 -1375 1 -1421 -7 -81 -14 -156 -55 -202 -112 -24 -29 -62 -110 -118
-248 -343 -860 -751 -1551 -1294 -2198 -134 -158 -551 -574 -705 -702 -611
-508 -1251 -842 -1935 -1010 -190 -47 -404 -84 -570 -100 -66 -6 -138 -13
-160 -16 -55 -6 -486 -5 -560 1 -403 37 -741 106 -1079 222 -1519 522 -2825
1913 -3574 3812 -66 165 -84 202 -123 245 -53 58 -112 91 -189 106 -65 12
-2664 11 -2760 -1z"/>
</g>
</svg>
