<?xml version="1.0" encoding="UTF-8"?>
<svg xmlns="http://www.w3.org/2000/svg" xmlns:xlink="http://www.w3.org/1999/xlink" width="500px" height="500px" viewBox="0 0 500 500" version="1.1">
<g id="surface1">
<path style=" stroke:none;fill-rule:nonzero;fill:rgb(0%,0%,0%);fill-opacity:1;" d="M 139.648438 250 L 139.648438 301 L 147.449219 301 L 147.449219 199 L 139.648438 199 Z M 139.648438 250 "/>
<path style=" stroke:none;fill-rule:nonzero;fill:rgb(0%,0%,0%);fill-opacity:1;" d="M 59.398438 207.785156 C 57.835938 207.949219 56.449219 208.28125 55.125 208.800781 C 49.445312 211.039062 45.578125 216.410156 45.304688 222.46875 C 45.199219 224.714844 45.539062 226.835938 46.324219 228.851562 C 48.46875 234.363281 53.460938 238.136719 59.375 238.703125 C 60.175781 238.78125 62.25 238.734375 62.949219 238.625 C 64.78125 238.339844 66.101562 237.925781 67.675781 237.148438 C 68.609375 236.691406 69.726562 235.988281 70.5 235.371094 C 71.050781 234.933594 72.484375 233.5 72.921875 232.949219 C 74.441406 231.046875 75.570312 228.609375 76.019531 226.253906 C 76.25 225.070312 76.273438 224.746094 76.273438 223.199219 C 76.269531 221.949219 76.253906 221.621094 76.164062 221.050781 C 75.726562 218.238281 74.710938 215.875 73 213.648438 C 72.429688 212.910156 70.945312 211.453125 70.148438 210.863281 C 67.863281 209.160156 65.351562 208.15625 62.523438 207.824219 C 61.929688 207.753906 59.914062 207.730469 59.398438 207.785156 Z M 59.398438 207.785156 "/>
<path style=" stroke:none;fill-rule:nonzero;fill:rgb(0%,0%,0%);fill-opacity:1;" d="M 449.125 211.074219 C 446.875 211.488281 445.085938 213.054688 444.378906 215.21875 C 443.796875 217 444.125 219.066406 445.238281 220.613281 C 445.585938 221.101562 446.261719 221.75 446.75 222.085938 C 448.816406 223.476562 451.453125 223.488281 453.515625 222.121094 C 454.875 221.214844 455.789062 219.839844 456.128906 218.199219 C 456.253906 217.609375 456.253906 216.476562 456.128906 215.898438 C 455.878906 214.726562 455.355469 213.726562 454.566406 212.894531 C 453.71875 212.011719 452.71875 211.433594 451.503906 211.140625 C 450.941406 211.003906 449.703125 210.96875 449.125 211.074219 Z M 451.199219 212.125 C 451.671875 212.226562 452.058594 212.371094 452.53125 212.621094 C 454.460938 213.644531 455.503906 215.796875 455.125 217.953125 C 454.773438 219.96875 453.191406 221.589844 451.15625 222.011719 C 450.476562 222.148438 449.464844 222.113281 448.824219 221.929688 C 446.566406 221.265625 445.054688 219.234375 445.125 216.949219 C 445.183594 214.964844 446.324219 213.261719 448.128906 212.445312 C 449.054688 212.03125 450.191406 211.914062 451.199219 212.125 Z M 451.199219 212.125 "/>
<path style=" stroke:none;fill-rule:nonzero;fill:rgb(0%,0%,0%);fill-opacity:1;" d="M 448.125 214.308594 C 448.109375 214.34375 448.105469 215.65625 448.109375 217.226562 L 448.125 220.074219 L 449.125 220.074219 L 449.140625 219.109375 L 449.148438 218.148438 L 449.789062 218.148438 L 450.425781 218.15625 L 450.628906 218.441406 C 450.738281 218.59375 451.054688 219.035156 451.320312 219.414062 L 451.804688 220.105469 L 452.429688 220.09375 C 452.769531 220.09375 453.050781 220.085938 453.050781 220.074219 C 453.050781 220.066406 452.710938 219.589844 452.300781 219.019531 L 451.550781 217.980469 L 451.835938 217.839844 C 452.558594 217.484375 452.914062 216.664062 452.753906 215.726562 C 452.609375 214.894531 452.171875 214.484375 451.253906 214.320312 C 450.734375 214.230469 448.160156 214.21875 448.125 214.308594 Z M 451.316406 215.285156 C 451.621094 215.425781 451.746094 215.675781 451.75 216.148438 C 451.75 216.59375 451.609375 216.878906 451.300781 217.050781 C 451.085938 217.171875 451.03125 217.175781 450.113281 217.191406 L 449.148438 217.210938 L 449.148438 215.140625 L 450.113281 215.160156 C 450.96875 215.175781 451.101562 215.191406 451.316406 215.285156 Z M 451.316406 215.285156 "/>
<path style=" stroke:none;fill-rule:nonzero;fill:rgb(0%,0%,0%);fill-opacity:1;" d="M 86.800781 223.398438 L 86.800781 234.101562 L 107.863281 234.089844 L 128.925781 234.074219 L 128.941406 223.386719 L 128.949219 212.699219 L 86.800781 212.699219 Z M 86.800781 223.398438 "/>
<path style=" stroke:none;fill-rule:nonzero;fill:rgb(0%,0%,0%);fill-opacity:1;" d="M 161.398438 224.871094 C 161.398438 224.90625 161.691406 225.71875 162.046875 226.679688 C 162.398438 227.640625 163.539062 230.71875 164.574219 233.523438 C 165.609375 236.328125 167.105469 240.378906 167.898438 242.523438 C 170.90625 250.664062 173.019531 256.386719 176.765625 266.523438 C 179.554688 274.074219 179.90625 275.011719 179.953125 275.109375 C 180 275.195312 180.171875 275.199219 184.804688 275.191406 L 189.609375 275.175781 L 191.820312 268.824219 C 193.035156 265.328125 195.390625 258.566406 197.050781 253.789062 C 198.714844 249.015625 200.089844 245.121094 200.105469 245.140625 C 200.144531 245.183594 209.058594 270.964844 209.859375 273.351562 L 210.476562 275.175781 L 215.105469 275.191406 L 219.734375 275.199219 L 220.476562 273.164062 C 221.574219 270.128906 221.859375 269.355469 226.675781 256.351562 C 229.113281 249.765625 232.433594 240.785156 234.058594 236.398438 C 235.683594 232.015625 237.308594 227.625 237.675781 226.648438 C 238.039062 225.675781 238.320312 224.859375 238.304688 224.835938 C 238.285156 224.816406 235.53125 224.804688 232.179688 224.808594 L 226.089844 224.824219 L 225.625 226.074219 C 225.074219 227.558594 221.679688 236.765625 216.179688 251.671875 C 215.726562 252.90625 215.339844 253.925781 215.328125 253.933594 C 215.320312 253.945312 215.253906 253.789062 215.183594 253.589844 C 215.121094 253.390625 212.96875 247.214844 210.410156 239.875 C 207.855469 232.53125 205.628906 226.140625 205.46875 225.675781 L 205.175781 224.824219 L 200.09375 224.816406 C 196.105469 224.804688 195 224.816406 194.964844 224.863281 C 194.933594 224.894531 194.800781 225.261719 194.660156 225.675781 C 194.429688 226.371094 191.554688 234.660156 186.839844 248.25 C 185.765625 251.34375 184.828125 254.039062 184.761719 254.246094 C 184.675781 254.503906 184.625 254.589844 184.59375 254.539062 C 184.574219 254.5 182.414062 248.695312 179.804688 241.644531 C 177.191406 234.59375 174.71875 227.925781 174.316406 226.824219 L 173.574219 224.824219 L 167.484375 224.816406 C 162.421875 224.800781 161.398438 224.808594 161.398438 224.871094 Z M 161.398438 224.871094 "/>
<path style=" stroke:none;fill-rule:nonzero;fill:rgb(0%,0%,0%);fill-opacity:1;" d="M 243.425781 224.859375 C 243.410156 224.894531 243.40625 236.230469 243.410156 250.050781 L 243.425781 275.175781 L 249.140625 275.191406 L 254.851562 275.199219 L 254.851562 224.800781 L 249.148438 224.800781 C 244.636719 224.800781 243.441406 224.816406 243.425781 224.859375 Z M 243.425781 224.859375 "/>
<path style=" stroke:none;fill-rule:nonzero;fill:rgb(0%,0%,0%);fill-opacity:1;" d="M 342.734375 226.558594 C 330.890625 237.769531 326.195312 242.199219 326.160156 242.199219 C 326.136719 242.199219 326.070312 242.148438 326.011719 242.085938 L 325.898438 241.96875 L 325.898438 224.851562 L 314.449219 224.851562 L 314.460938 250.011719 L 314.476562 275.175781 L 320.191406 275.191406 L 325.898438 275.199219 L 325.90625 266.691406 L 325.90625 258.175781 L 334.394531 266.691406 L 342.886719 275.199219 L 359.125 275.199219 L 346.683594 262.761719 L 334.238281 250.316406 L 347.71875 237.59375 C 355.136719 230.601562 361.199219 224.859375 361.199219 224.839844 C 361.199219 224.820312 357.464844 224.800781 352.898438 224.800781 L 344.601562 224.800781 Z M 342.734375 226.558594 "/>
<path style=" stroke:none;fill-rule:nonzero;fill:rgb(0%,0%,0%);fill-opacity:1;" d="M 409.691406 224.835938 L 403.949219 224.851562 L 403.949219 275.199219 L 409.664062 275.191406 L 415.375 275.175781 L 415.390625 265.210938 L 415.398438 255.25 L 418.746094 255.25 L 420.003906 256.886719 C 420.699219 257.789062 421.566406 258.90625 421.925781 259.375 C 422.289062 259.839844 424.605469 262.84375 427.074219 266.050781 C 429.550781 269.253906 431.863281 272.253906 432.226562 272.726562 C 432.585938 273.191406 433.113281 273.878906 433.398438 274.25 C 433.679688 274.621094 433.96875 274.984375 434.039062 275.066406 L 434.171875 275.199219 L 441.386719 275.199219 C 447.109375 275.199219 448.601562 275.183594 448.570312 275.136719 C 448.550781 275.105469 446.519531 272.464844 444.054688 269.273438 C 441.59375 266.085938 439.105469 262.855469 438.519531 262.101562 C 437.933594 261.34375 436.46875 259.441406 435.261719 257.875 L 433.058594 255.023438 L 433.769531 254.796875 C 437.824219 253.480469 440.761719 250.730469 442.136719 246.949219 C 442.546875 245.828125 442.816406 244.65625 442.980469 243.300781 C 443.105469 242.28125 443.109375 239.730469 442.984375 238.699219 C 442.601562 235.539062 441.566406 232.941406 439.851562 230.804688 C 437.363281 227.714844 433.398438 225.691406 428.550781 225.03125 C 428.234375 224.984375 427.75 224.925781 427.476562 224.894531 C 426.933594 224.835938 419.855469 224.808594 409.691406 224.835938 Z M 425.101562 234.054688 C 427.671875 234.316406 429.734375 235.503906 430.785156 237.324219 C 431.074219 237.824219 431.324219 238.488281 431.460938 239.101562 C 431.554688 239.554688 431.570312 239.765625 431.570312 240.648438 C 431.570312 241.375 431.546875 241.820312 431.480469 242.175781 C 431.203125 243.789062 430.640625 244.96875 429.675781 245.925781 C 429.148438 246.449219 428.699219 246.761719 427.988281 247.101562 C 427.128906 247.511719 426.109375 247.78125 424.996094 247.898438 C 424.71875 247.929688 422.625 247.949219 419.964844 247.949219 L 415.398438 247.949219 L 415.398438 234 L 419.996094 234 C 422.851562 234 424.785156 234.019531 425.101562 234.054688 Z M 425.101562 234.054688 "/>
<path style=" stroke:none;fill-rule:nonzero;fill:rgb(0%,0%,0%);fill-opacity:1;" d="M 262.210938 250.011719 L 262.226562 275.175781 L 273.675781 275.175781 L 273.699219 260.351562 L 273.726562 245.519531 L 276.378906 248.800781 C 286.613281 261.421875 296.410156 273.515625 297.21875 274.511719 L 297.773438 275.195312 L 302.5 275.183594 L 307.226562 275.175781 L 307.238281 250.011719 L 307.25 224.851562 L 295.75 224.851562 L 295.75 239.984375 C 295.75 248.304688 295.746094 255.121094 295.738281 255.128906 C 295.730469 255.136719 293.574219 252.480469 290.949219 249.234375 C 285.328125 242.28125 278.328125 233.625 276.105469 230.875 C 275.234375 229.800781 273.785156 228.003906 272.878906 226.886719 L 271.230469 224.851562 L 262.199219 224.851562 Z M 262.210938 250.011719 "/>
<path style=" stroke:none;fill-rule:nonzero;fill:rgb(0%,0%,0%);fill-opacity:1;" d="M 363.898438 250.023438 L 363.898438 275.199219 L 398.101562 275.199219 L 398.101562 266 L 375.351562 266 L 375.351562 259.875 C 375.351562 255.011719 375.363281 253.75 375.414062 253.75 C 375.445312 253.75 379.535156 253.746094 384.5 253.734375 L 393.523438 253.726562 L 393.535156 249.214844 C 393.546875 246.734375 393.535156 244.671875 393.519531 244.625 C 393.488281 244.558594 392.539062 244.550781 384.421875 244.550781 L 375.351562 244.550781 L 375.351562 234 L 398.101562 234 L 398.101562 224.851562 L 363.898438 224.851562 Z M 363.898438 250.023438 "/>
<path style=" stroke:none;fill-rule:nonzero;fill:rgb(0%,0%,0%);fill-opacity:1;" d="M 47.050781 247.605469 C 46.585938 247.664062 45.980469 247.863281 45.601562 248.085938 C 45.199219 248.320312 44.535156 248.976562 44.304688 249.359375 C 43.90625 250.046875 43.71875 250.78125 43.773438 251.488281 C 43.839844 252.390625 44.800781 255.734375 45.734375 258.324219 C 48.535156 266.105469 52.625 273.109375 57.621094 278.699219 C 58.441406 279.621094 60.363281 281.535156 61.273438 282.34375 C 67.300781 287.695312 74.179688 290.914062 81.726562 291.921875 C 82.21875 291.988281 82.796875 292.054688 83 292.074219 C 83.203125 292.089844 83.453125 292.113281 83.550781 292.125 C 84.660156 292.261719 87.085938 292.320312 88.644531 292.25 C 91.949219 292.109375 94.738281 291.679688 97.710938 290.84375 C 106.464844 288.390625 114.183594 282.660156 120.351562 274.050781 C 124.730469 267.933594 128.28125 260.28125 130.179688 252.863281 C 130.421875 251.914062 130.449219 251.75 130.449219 251.285156 C 130.449219 249.84375 129.675781 248.609375 128.375 247.976562 C 127.503906 247.550781 128.125 247.578125 120.5 247.566406 C 115.738281 247.550781 113.625 247.558594 113.394531 247.601562 C 112.988281 247.671875 112.613281 247.875 112.386719 248.160156 C 112.265625 248.304688 112.074219 248.710938 111.796875 249.398438 C 110.078125 253.699219 108.039062 257.15625 105.324219 260.390625 C 104.65625 261.179688 102.570312 263.261719 101.800781 263.898438 C 98.746094 266.441406 95.546875 268.109375 92.125 268.949219 C 91.175781 269.183594 90.105469 269.371094 89.273438 269.449219 C 88.945312 269.480469 88.585938 269.515625 88.476562 269.53125 C 88.199219 269.558594 86.046875 269.554688 85.675781 269.523438 C 83.660156 269.339844 81.96875 268.996094 80.28125 268.414062 C 72.683594 265.804688 66.15625 258.851562 62.410156 249.355469 C 62.078125 248.53125 61.988281 248.34375 61.796875 248.128906 C 61.53125 247.839844 61.234375 247.675781 60.851562 247.601562 C 60.523438 247.539062 47.53125 247.546875 47.050781 247.605469 Z M 47.050781 247.605469 "/>
</g>
</svg>
